<svg width="88" height="88" viewBox="0 0 88 88" fill="none" xmlns="http://www.w3.org/2000/svg">
<path d="M73.394 61.496H14.6119C13.9767 61.496 13.457 60.9763 13.457 60.3411V8.48811C13.457 7.85294 13.9767 7.33325 14.6119 7.33325H73.394C74.0292 7.33325 74.5489 7.85294 74.5489 8.48811V60.3411C74.5489 60.9763 74.0292 61.496 73.394 61.496ZM15.7667 59.1863H72.2392V9.64296H15.7667V59.1863Z" fill="white"/>
<path d="M79.5125 80.6668H8.48884C8.14238 80.6668 7.79593 80.4936 7.56496 80.2049C7.33398 79.9162 7.27624 79.512 7.39173 79.1655L13.5125 59.9949C13.6857 59.533 14.0899 59.1865 14.6096 59.1865H73.3917C73.9114 59.1865 74.3156 59.533 74.4888 59.9949L80.6096 79.1655C80.7251 79.512 80.6673 79.9162 80.4363 80.2049C80.2054 80.4936 79.8589 80.6668 79.5125 80.6668ZM10.0479 78.3571H77.8957L72.5256 61.4962H15.418L10.0479 78.3571Z" fill="white"/>
<path d="M54.6276 74.0263H33.3783C33.2051 74.0263 33.0318 73.9685 32.9163 73.7953C32.8009 73.6798 32.7431 73.4488 32.8009 73.2756L34.6486 66.2887C34.7064 66.0578 34.9373 65.8845 35.2261 65.8845H52.7799C53.0686 65.8845 53.2995 66.0578 53.3573 66.2887L55.2051 73.2756C55.2628 73.4488 55.2051 73.6221 55.0896 73.7953C54.9741 73.9108 54.8009 74.0263 54.6276 74.0263ZM34.1289 72.8714H53.8192L52.3179 67.0394H35.688L34.1289 72.8714ZM28.4124 53.1234H22.1184C21.772 53.1234 21.541 52.8924 21.541 52.546V34.126C21.541 33.7795 21.772 33.5486 22.1184 33.5486H28.4124C28.7589 33.5486 28.9898 33.7795 28.9898 34.126V52.546C28.9898 52.8924 28.7011 53.1234 28.4124 53.1234ZM22.6959 51.9685H27.835V34.7034H22.6959V51.9685ZM40.8848 53.1234H34.5909C34.2444 53.1234 34.0135 52.8924 34.0135 52.546V27.832C34.0135 27.4856 34.2444 27.2546 34.5909 27.2546H40.8848C41.2313 27.2546 41.4623 27.4856 41.4623 27.832V52.546C41.4623 52.8924 41.2313 53.1234 40.8848 53.1234ZM35.1683 51.9685H40.3074V28.4095H35.1683V51.9685ZM53.415 53.1234H47.1211C46.7746 53.1234 46.5436 52.8924 46.5436 52.546V35.1654C46.5436 34.8189 46.7746 34.5879 47.1211 34.5879H53.415C53.7615 34.5879 53.9925 34.8189 53.9925 35.1654V52.546C53.9925 52.8924 53.7038 53.1234 53.415 53.1234ZM47.6985 51.9685H52.8376V35.7428H47.6985V51.9685ZM65.8875 53.1234H59.5935C59.2471 53.1234 59.0161 52.8924 59.0161 52.546V16.2835C59.0161 15.937 59.2471 15.7061 59.5935 15.7061H65.8875C66.2339 15.7061 66.4649 15.937 66.4649 16.2835V52.546C66.4649 52.8924 66.2339 53.1234 65.8875 53.1234ZM60.1709 51.9685H65.3101V16.8609H60.1709V51.9685Z" fill="white"/>
</svg>
