<svg width="88" height="88" viewBox="0 0 88 88" fill="none" xmlns="http://www.w3.org/2000/svg">
<path d="M65.8625 51.425H1.71875C0.9625 51.425 0.34375 50.8063 0.34375 50.05V17.5312C0.34375 16.775 0.9625 16.1562 1.71875 16.1562H65.8625C66.6188 16.1562 67.2375 16.775 67.2375 17.5312V50.05C67.2375 50.8063 66.6188 51.425 65.8625 51.425ZM3.09375 48.675H64.4875V18.9062H3.09375V48.675Z" fill="white"/>
<path d="M33.8258 43.8624C29.357 43.8624 25.6445 39.3249 25.6445 33.7562C25.6445 28.1874 29.2883 23.6499 33.8258 23.6499C38.3633 23.6499 41.9383 28.1874 41.9383 33.7562C41.9383 39.3249 38.2945 43.8624 33.8258 43.8624ZM33.8258 25.0249C30.1133 25.0249 27.0195 28.9437 27.0195 33.7562C27.0195 38.5687 30.0445 42.4874 33.8258 42.4874C37.607 42.4874 40.5633 38.5687 40.5633 33.7562C40.5633 28.9437 37.5383 25.0249 33.8258 25.0249Z" fill="white"/>
<path d="M72.6691 58.2312H8.52539C7.76914 58.2312 7.15039 57.6124 7.15039 56.8562C7.15039 56.0999 7.76914 55.4812 8.52539 55.4812H71.2941V24.3374C71.2941 23.5812 71.9129 22.9624 72.6691 22.9624C73.4254 22.9624 74.0441 23.5812 74.0441 24.3374V56.8562C74.0441 57.6124 73.4254 58.2312 72.6691 58.2312Z" fill="white"/>
<path d="M79.4758 65.0375H15.332C14.5758 65.0375 13.957 64.4188 13.957 63.6625C13.957 62.9063 14.5758 62.2875 15.332 62.2875H78.1008V31.1438C78.1008 30.3875 78.7195 29.7688 79.4758 29.7688C80.232 29.7688 80.8508 30.3875 80.8508 31.1438V63.6625C80.8508 64.4188 80.232 65.0375 79.4758 65.0375Z" fill="white"/>
<path d="M86.2805 71.8437H22.1367C21.3805 71.8437 20.7617 71.2249 20.7617 70.4687C20.7617 69.7125 21.3805 69.0937 22.1367 69.0937H84.9055V37.95C84.9055 37.1937 85.5242 36.575 86.2805 36.575C87.0367 36.575 87.6555 37.1937 87.6555 37.95V70.4687C87.6555 71.2249 87.0367 71.8437 86.2805 71.8437Z" fill="white"/>
</svg>
