<svg width="168" height="36" viewBox="0 0 168 36" fill="none" xmlns="http://www.w3.org/2000/svg">
<path d="M0 0.0373038C6.58676 0.0373038 13.1735 0.0736502 19.7603 0.0373038C20.3852 -0.0097416 21.0106 0.122603 21.5629 0.41878C22.1151 0.714956 22.5714 1.16265 22.878 1.70924C26.1088 6.57561 29.4324 11.3612 32.8288 16.3205C30.0382 21.3645 27.2961 26.4167 24.4288 31.4244C23.5524 32.9469 23.1364 35.1438 21.2787 36H7.44695L12.2931 26.7801L12.5314 26.3763C13.5491 24.567 14.5668 22.7497 15.5845 20.9243C16.1786 19.8337 16.9937 18.8789 17.9776 18.1209C18.9616 17.363 20.0928 16.8186 21.2989 16.5224C23.722 15.8601 26.2097 16.5224 28.7742 16.0297C27.0942 12.5889 24.8084 10.4041 20.8305 10.501C15.9843 10.5858 11.1704 10.501 6.49387 10.501C5.19348 9.28947 4.6079 7.89215 3.72752 6.71695L3.51751 6.40599L3.23886 6.00214L2.99655 5.5983L2.91982 5.48522L2.70174 5.15406L2.45943 4.78252L2.15655 4.37867L1.61539 3.59521L1.44174 3.19136L0.852119 2.38366L0.634041 1.97981L0 1.24885V0.0373038Z" fill="#A61C34"/>
<path d="M167.192 15.6544C165.274 15.8967 162.94 15.7755 160.941 15.7957C155.44 15.8482 149.94 15.7957 144.318 15.7957V0.0456543H167.192V3.34106H148.179V6.19223H164.737C164.765 7.40377 164.927 8.36897 164.612 9.4634H148.159C148.159 10.4407 147.921 11.2767 148.232 12.145H167.212V12.9526C167.192 13.934 167.107 14.7619 167.192 15.6544Z" fill="black"/>
<path d="M118.326 35.9799V20.4762H140.751C140.998 21.5412 140.98 22.6505 140.699 23.707H122.445C122.191 24.1331 122.053 24.6182 122.045 25.114C122.036 25.6098 122.158 26.0993 122.396 26.5339H138.049C138.776 27.5395 138.57 28.3876 138.373 29.5305H122.582C121.827 30.5401 121.984 31.3074 122.255 32.2807H140.485C141.224 33.577 140.735 34.8249 140.941 35.984L118.326 35.9799ZM37.9598 35.9799L38.1214 32.3453H56.1815C57.0861 31.5699 57.0942 30.952 56.7832 30.2251C55.6919 29.7361 54.5005 29.5119 53.3061 29.5708C49.5422 29.5708 45.7783 29.6031 41.9983 29.5708C39.3047 29.5506 37.342 27.9554 37.1522 25.7141C36.93 22.9881 38.3031 21.1668 41.1179 20.5529C41.9694 20.3757 42.8369 20.2878 43.7066 20.2904C49.0737 20.2662 54.4409 20.2904 59.8605 20.2904C60.3007 21.4414 60.1755 22.4793 59.9897 23.82C56.8478 23.82 53.7099 23.7393 50.5801 23.8443C47.4503 23.9493 44.3568 23.3273 41.3602 24.2845C40.9564 26.3037 41.966 26.647 43.3795 26.647C47.5472 26.647 51.7149 26.5985 55.8988 26.6833C59.5334 26.756 61.3669 28.8237 61.0074 32.1434C60.7692 34.3686 58.9882 35.0995 57.3728 35.984L37.9598 35.9799ZM64.21 35.9799V20.3994H86.2156C86.676 21.4414 86.3933 22.4833 86.462 23.7191H68.3131C67.6386 24.7045 67.8204 25.5404 68.0505 26.6106H83.9985C84.5518 27.6526 84.3054 28.4845 84.265 29.5506H68.1959C67.6952 30.536 67.7921 31.3074 68.0505 32.3493H86.1954C86.6235 33.7184 86.4175 34.8532 86.4175 35.984L64.21 35.9799ZM143.364 35.9799V20.6337C144.491 20.0077 145.63 20.3833 146.684 20.3106L163.084 31.2832C163.932 27.6001 163.124 24.0543 163.593 20.5893C164.776 19.9956 166.016 20.4641 167.191 20.2419V35.992H163.153C158.101 32.0747 152.616 28.8035 146.999 24.9225V35.9799H143.364ZM100.152 35.9799C97.6688 31.9859 94.3895 28.6016 91.611 24.8297C90.5893 23.4404 89.4949 22.1077 88.3035 20.5812C89.9189 20.036 91.288 20.3591 92.8589 20.3066L102.458 32.5028L111.856 20.3873H116.654L104.595 35.9799H100.152Z" fill="#ABABAD"/>
<path d="M115.686 6.31311V15.6541C109.818 15.6541 104.015 16.058 98.3203 15.541C92.0324 14.9433 89.0924 9.1037 91.9597 3.97079C93.5307 1.11558 96.293 0.202883 99.229 0.0938435C104.192 -0.0838498 109.176 0.0453817 114.26 0.0453817V3.43771C110.949 3.43771 107.665 3.41348 104.386 3.43771C102.646 3.43771 100.901 3.52655 99.1644 3.6679C96.8947 3.85367 95.449 5.12983 95.239 6.99965C94.924 9.80236 95.6953 11.0906 98.2395 11.8943C98.8767 12.1006 99.5407 12.2122 100.21 12.2254C104.035 12.2578 107.855 12.2254 111.76 12.2254C111.995 11.2967 111.987 10.3232 111.736 9.39851H104.362C104.139 8.3734 104.115 7.31517 104.289 6.2808L115.686 6.31311ZM38.4297 0.114036H60.928V3.34482H42.4035C41.8301 4.28579 42.1532 5.09753 42.0401 6.11926H58.4242C58.828 7.27427 58.618 8.2112 58.6584 9.35005H42.1249V12.1204H60.8675V15.6864H38.4297V0.114036ZM69.4614 13.231L67.4421 15.6985H62.6363L74.9779 0.0857665H79.2466L91.5882 15.6743H86.7824L84.7631 13.2512L69.4614 13.231ZM77.0941 3.39328L72.0056 9.96794H82.2593L77.0941 3.39328ZM141.197 12.2497V15.6541H118.933V0.138267H122.729V12.2537L141.197 12.2497Z" fill="black"/>
</svg>
