<svg width="121" height="26" viewBox="0 0 121 26" fill="none" xmlns="http://www.w3.org/2000/svg">
<path d="M0 0.0271114C4.75722 0.0271114 9.51444 0.0533613 14.2717 0.0271114C14.723 -0.00686567 15.1747 0.0887162 15.5736 0.30262C15.9724 0.516524 16.302 0.839858 16.5234 1.23461C18.8568 4.74919 21.2573 8.20544 23.7103 11.7871C21.6948 15.43 19.7143 19.0788 17.6434 22.6954C17.0105 23.795 16.7101 25.3817 15.3684 26H5.37849L8.87859 19.3413L9.05068 19.0496C9.7857 17.7429 10.5207 16.4304 11.2557 15.1121C11.6849 14.3244 12.2735 13.6348 12.9842 13.0874C13.6948 12.54 14.5118 12.1468 15.3829 11.9329C17.133 11.4546 18.9297 11.9329 20.7818 11.5771C19.5685 9.0921 17.9176 7.51419 15.0446 7.58419C11.5445 7.64544 8.06773 7.58419 4.69013 7.58419C3.75094 6.70919 3.32801 5.70002 2.69216 4.85127L2.54049 4.62669L2.33923 4.33502L2.16423 4.04336L2.10881 3.96169L1.95131 3.72252L1.7763 3.45419L1.55754 3.16252L1.1667 2.59669L1.04128 2.30503L0.615434 1.72169L0.45793 1.43003L0 0.90211V0.0271114Z" fill="#A61C34"/>
<path d="M120.751 11.3061C119.365 11.4811 117.68 11.3936 116.236 11.4082C112.263 11.4461 108.291 11.4082 104.23 11.4082V0.0332031H120.751V2.4132H107.019V4.47237H118.978C118.998 5.34736 119.115 6.04445 118.887 6.83486H107.004C107.004 7.5407 106.832 8.14444 107.057 8.77153H120.766V9.35486C120.751 10.0636 120.69 10.6615 120.751 11.3061Z" fill="black"/>
<path d="M85.46 25.9853V14.7883H101.657C101.835 15.5574 101.822 16.3586 101.619 17.1216H88.4351C88.2519 17.4294 88.1524 17.7797 88.1462 18.1378C88.1401 18.4959 88.2276 18.8494 88.4001 19.1632H99.7054C100.23 19.8895 100.082 20.502 99.9387 21.3274H88.5343C87.9888 22.0566 88.1026 22.6107 88.298 23.3137H101.464C101.998 24.2499 101.645 25.1512 101.794 25.9882L85.46 25.9853ZM27.4167 25.9853L27.5333 23.3603H40.577C41.2304 22.8003 41.2362 22.3541 41.0116 21.8291C40.2235 21.4759 39.363 21.314 38.5003 21.3566C35.7819 21.3566 33.0635 21.3799 30.3334 21.3566C28.3879 21.342 26.9704 20.1899 26.8333 18.5712C26.6729 16.6024 27.6646 15.287 29.6976 14.8437C30.3125 14.7157 30.9391 14.6522 31.5672 14.6541C35.4436 14.6366 39.3199 14.6541 43.2342 14.6541C43.5521 15.4853 43.4617 16.2349 43.3275 17.2033C41.0583 17.2033 38.792 17.1449 36.5315 17.2208C34.271 17.2966 32.0368 16.8474 29.8726 17.5387C29.5809 18.997 30.3101 19.2449 31.3309 19.2449C34.341 19.2449 37.3511 19.2099 40.3729 19.2712C42.9979 19.3237 44.3222 20.817 44.0626 23.2145C43.8905 24.8216 42.6042 25.3495 41.4375 25.9882L27.4167 25.9853ZM46.3755 25.9853V14.7328H62.2689C62.6014 15.4853 62.3973 16.2378 62.4468 17.1303H49.339C48.8519 17.842 48.9831 18.4457 49.1494 19.2187H60.6676C61.0672 19.9712 60.8893 20.572 60.8601 21.342H49.2544C48.8927 22.0537 48.9627 22.6107 49.1494 23.3632H62.2543C62.5635 24.352 62.4148 25.1716 62.4148 25.9882L46.3755 25.9853ZM103.544 25.9853V14.902C104.358 14.4499 105.18 14.7212 105.941 14.6687L117.786 22.5932C118.399 19.9332 117.815 17.3724 118.154 14.8699C119.008 14.4412 119.904 14.7795 120.753 14.6191V25.9941H117.836C114.187 23.1649 110.226 20.8024 106.169 17.9995V25.9853H103.544ZM72.3346 25.9853C70.5408 23.1007 68.1724 20.6566 66.1657 17.9324C65.4278 16.9291 64.6373 15.9666 63.7769 14.8641C64.9436 14.4703 65.9324 14.7037 67.067 14.6658L74.0001 23.4741L80.7874 14.7241H84.2525L75.543 25.9853H72.3346Z" fill="#ABABAD"/>
<path d="M83.5552 4.55944V11.3057C79.3172 11.3057 75.1258 11.5973 71.0132 11.224C66.4718 10.7923 64.3484 6.57485 66.4193 2.86777C67.554 0.805691 69.549 0.146525 71.6695 0.0677754C75.2542 -0.0605578 78.8534 0.0327755 82.5256 0.0327755V2.48277C80.1339 2.48277 77.7626 2.46527 75.3942 2.48277C74.1371 2.48277 72.877 2.54694 71.6228 2.64902C69.9836 2.78319 68.9394 3.70486 68.7877 5.05527C68.5602 7.07944 69.1173 8.00985 70.9549 8.59027C71.4151 8.73927 71.8946 8.81985 72.3783 8.82943C75.1404 8.85277 77.8997 8.82943 80.7202 8.82943C80.8895 8.15864 80.8835 7.45556 80.7027 6.78777H75.3767C75.2158 6.04742 75.198 5.28315 75.3242 4.5361L83.5552 4.55944ZM27.7578 0.0823587H44.007V2.41569H30.6279C30.2137 3.09527 30.4471 3.68152 30.3654 4.41944H42.1986C42.4903 5.2536 42.3386 5.93027 42.3678 6.75277H30.4266V8.7536H43.9633V11.329H27.7578V0.0823587ZM50.1701 9.55568L48.7117 11.3378H45.2408L54.1544 0.0619421H57.2374L66.151 11.3203H62.6801L61.2217 9.57027L50.1701 9.55568ZM55.6828 2.45069L52.0077 7.19902H59.4133L55.6828 2.45069ZM101.98 8.84693V11.3057H85.9003V0.0998587H88.642V8.84985L101.98 8.84693Z" fill="black"/>
</svg>
